<?xml version="1.0" encoding="UTF-8" standalone="no"?>
<!DOCTYPE svg PUBLIC "-//W3C//DTD SVG 1.1//EN" "http://www.w3.org/Graphics/SVG/1.1/DTD/svg11.dtd">
<svg width="100%" height="100%" viewBox="0 0 1740 680" version="1.1" xmlns="http://www.w3.org/2000/svg" xmlns:xlink="http://www.w3.org/1999/xlink" xml:space="preserve" xmlns:serif="http://www.serif.com/" style="fill-rule:evenodd;clip-rule:evenodd;stroke-linejoin:round;stroke-miterlimit:2;">
    <g transform="matrix(1,0,0,1,-951,-989)">
        <g transform="matrix(4.16667,0,0,4.16667,0,0)">
            <path d="M323.734,255.364L319.653,255.364L319.653,240.884L313.128,240.884L313.128,255.364L309.036,255.364L309.036,237.737L323.734,237.737L323.734,255.364Z" style="fill-rule:nonzero;"/>
            <path d="M331.13,246.175L333.769,246.175C334.657,246.175 335.335,245.931 335.803,245.443C336.271,244.954 336.505,244.326 336.505,243.56C336.505,242.778 336.273,242.136 335.809,241.635C335.345,241.135 334.665,240.884 333.769,240.884L331.13,240.884L331.13,246.175ZM331.13,249.324L331.13,255.364L327.038,255.364L327.038,237.737L333.769,237.737C335.859,237.737 337.518,238.269 338.745,239.334C339.972,240.401 340.585,241.8 340.585,243.535C340.585,245.271 339.972,246.669 338.745,247.731C337.518,248.792 335.859,249.324 333.769,249.324L331.13,249.324Z" style="fill-rule:nonzero;"/>
            <path d="M351.166,240.884L348.926,240.884C348.095,240.884 347.467,241.094 347.044,241.514C346.62,241.934 346.408,242.535 346.408,243.318C346.408,244.101 346.626,244.735 347.062,245.218C347.498,245.703 348.119,245.945 348.926,245.945L351.166,245.945L351.166,240.884ZM345.548,255.364L341.105,255.364L344.774,247.519C343.959,247.027 343.345,246.407 342.933,245.66C342.522,244.914 342.316,244.052 342.316,243.075C342.316,241.381 342.903,240.068 344.077,239.135C345.252,238.202 346.868,237.737 348.926,237.737L355.258,237.737L355.258,255.364L351.166,255.364L351.166,248.863L348.611,248.863L345.548,255.364Z" style="fill-rule:nonzero;"/>
            <path d="M367.654,250.073L367.727,250.073L371.71,237.737L377.121,237.737L377.121,255.364L373.029,255.364L373.029,244.007L372.957,243.995L369.071,255.364L366.322,255.364L362.509,244.165L362.437,244.177L362.437,255.364L358.344,255.364L358.344,237.737L363.707,237.737L367.654,250.073Z" style="fill-rule:nonzero;"/>
            <path d="M385.572,248.79L388.925,248.79L387.278,243.318L387.206,243.318L385.572,248.79ZM389.869,251.937L384.627,251.937L383.61,255.364L379.301,255.364L385.051,237.737L387.242,237.737L387.242,237.749L387.254,237.737L389.446,237.737L395.208,255.364L390.899,255.364L389.869,251.937Z" style="fill-rule:nonzero;"/>
            <path d="M412.944,250.073L413.016,250.073L416.999,237.737L422.411,237.737L422.411,255.364L418.319,255.364L418.319,244.007L418.247,243.995L414.359,255.364L411.612,255.364L407.798,244.165L407.725,244.177L407.725,255.364L403.633,255.364L403.633,237.737L408.997,237.737L412.944,250.073Z" style="fill-rule:nonzero;"/>
            <path d="M436.284,244.94C436.284,243.681 435.987,242.648 435.395,241.841C434.801,241.033 433.964,240.63 432.882,240.63C431.776,240.63 430.931,241.032 430.346,241.834C429.761,242.638 429.468,243.673 429.468,244.94L429.468,248.136C429.468,249.411 429.765,250.453 430.358,251.26C430.952,252.067 431.8,252.47 432.907,252.47C433.98,252.47 434.81,252.067 435.4,251.26C435.99,250.453 436.284,249.411 436.284,248.136L436.284,244.94ZM440.365,248.136C440.365,250.308 439.675,252.097 438.3,253.506C436.923,254.914 435.126,255.618 432.907,255.618C430.671,255.618 428.859,254.914 427.47,253.506C426.083,252.097 425.388,250.308 425.388,248.136L425.388,244.964C425.388,242.801 426.08,241.013 427.464,239.601C428.849,238.189 430.655,237.482 432.882,237.482C435.093,237.482 436.893,238.189 438.282,239.601C439.671,241.013 440.365,242.801 440.365,244.964L440.365,248.136Z" style="fill-rule:nonzero;"/>
            <path d="M447.447,247.797L447.447,252.216L450.075,252.216C450.946,252.216 451.599,252.045 452.035,251.701C452.471,251.359 452.689,250.832 452.689,250.122C452.689,249.371 452.498,248.802 452.114,248.414C451.731,248.027 451.098,247.822 450.22,247.797L447.447,247.797ZM447.447,245.085L449.057,245.085C450.042,245.085 450.776,244.914 451.261,244.572C451.745,244.228 451.987,243.717 451.987,243.039C451.987,242.288 451.754,241.741 451.285,241.399C450.817,241.056 450.098,240.884 449.13,240.884L447.447,240.884L447.447,245.085ZM443.355,255.364L443.355,237.737L449.13,237.737C451.317,237.737 453.022,238.142 454.245,238.953C455.467,239.765 456.079,240.974 456.079,242.579C456.079,243.419 455.885,244.163 455.499,244.813C455.111,245.463 454.505,245.953 453.682,246.284C454.731,246.51 455.507,246.978 456.013,247.689C456.517,248.399 456.769,249.217 456.769,250.147C456.769,251.865 456.192,253.164 455.038,254.044C453.883,254.924 452.229,255.364 450.075,255.364L443.355,255.364Z" style="fill-rule:nonzero;"/>
            <path d="M464.589,248.79L467.943,248.79L466.297,243.318L466.223,243.318L464.589,248.79ZM468.886,251.937L463.644,251.937L462.629,255.364L458.318,255.364L464.069,237.737L466.259,237.737L466.259,237.749L466.271,237.737L468.464,237.737L474.226,255.364L469.916,255.364L468.886,251.937Z" style="fill-rule:nonzero;"/>
            <path d="M497.348,237.737L497.348,255.364L493.268,255.364L493.268,240.884L488.911,240.884L488.911,245.581C488.911,249.117 488.349,251.631 487.227,253.124C486.105,254.617 484.419,255.364 482.168,255.364L481.707,255.364L481.707,252.216L482.179,252.216C483.284,252.216 483.999,251.771 484.322,250.878C484.644,249.987 484.805,248.221 484.805,245.581L484.805,237.737L497.348,237.737Z" style="fill:rgb(237,30,36);fill-rule:nonzero;"/>
            <path d="M504.758,246.684L504.758,252.216L507.13,252.216C508.027,252.216 508.728,251.946 509.238,251.406C509.746,250.864 510,250.202 510,249.419C510,248.661 509.744,248.015 509.231,247.483C508.718,246.949 508.018,246.684 507.13,246.684L504.758,246.684ZM504.758,243.535L507.13,243.535C509.22,243.535 510.901,244.089 512.172,245.194C513.443,246.3 514.08,247.717 514.08,249.444C514.08,251.179 513.443,252.599 512.172,253.705C510.901,254.811 509.22,255.364 507.13,255.364L500.653,255.364L500.653,237.737L504.758,237.737L504.758,243.535Z" style="fill:rgb(237,30,36);fill-rule:nonzero;"/>
            <path d="M520.714,247.797L520.714,252.216L523.341,252.216C524.213,252.216 524.866,252.045 525.302,251.701C525.738,251.359 525.956,250.832 525.956,250.122C525.956,249.371 525.764,248.802 525.381,248.414C524.998,248.027 524.366,247.822 523.487,247.797L520.714,247.797ZM520.714,245.085L522.323,245.085C523.307,245.085 524.043,244.914 524.528,244.572C525.011,244.228 525.254,243.717 525.254,243.039C525.254,242.288 525.02,241.741 524.551,241.399C524.084,241.056 523.365,240.884 522.396,240.884L520.714,240.884L520.714,245.085ZM516.622,255.364L516.622,237.737L522.396,237.737C524.584,237.737 526.289,238.142 527.511,238.953C528.734,239.765 529.345,240.974 529.345,242.579C529.345,243.419 529.153,244.163 528.765,244.813C528.378,245.463 527.772,245.953 526.949,246.284C527.999,246.51 528.774,246.978 529.28,247.689C529.784,248.399 530.036,249.217 530.036,250.147C530.036,251.865 529.459,253.164 528.304,254.044C527.15,254.924 525.497,255.364 523.341,255.364L516.622,255.364Z" style="fill:rgb(237,30,36);fill-rule:nonzero;"/>
            <path d="M543.498,244.94C543.498,243.681 543.201,242.648 542.608,241.841C542.014,241.033 541.177,240.63 540.095,240.63C538.989,240.63 538.145,241.032 537.559,241.834C536.974,242.638 536.682,243.673 536.682,244.94L536.682,248.136C536.682,249.411 536.979,250.453 537.571,251.26C538.165,252.067 539.014,252.47 540.12,252.47C541.193,252.47 542.024,252.067 542.614,251.26C543.203,250.453 543.498,249.411 543.498,248.136L543.498,244.94ZM547.578,248.136C547.578,250.308 546.889,252.097 545.513,253.506C544.137,254.914 542.339,255.618 540.12,255.618C537.884,255.618 536.072,254.914 534.684,253.506C533.296,252.097 532.601,250.308 532.601,248.136L532.601,244.964C532.601,242.801 533.294,241.013 534.677,239.601C536.062,238.189 537.868,237.482 540.095,237.482C542.307,237.482 544.106,238.189 545.496,239.601C546.883,241.013 547.578,242.801 547.578,244.964L547.578,248.136Z" style="fill:rgb(237,30,36);fill-rule:nonzero;"/>
            <path d="M554.659,247.797L554.659,252.216L557.287,252.216C558.158,252.216 558.811,252.045 559.247,251.701C559.683,251.359 559.901,250.832 559.901,250.122C559.901,249.371 559.71,248.802 559.326,248.414C558.943,248.027 558.31,247.822 557.432,247.797L554.659,247.797ZM554.659,245.085L556.269,245.085C557.254,245.085 557.988,244.914 558.473,244.572C558.957,244.228 559.199,243.717 559.199,243.039C559.199,242.288 558.965,241.741 558.497,241.399C558.029,241.056 557.31,240.884 556.341,240.884L554.659,240.884L554.659,245.085ZM550.567,255.364L550.567,237.737L556.341,237.737C558.528,237.737 560.234,238.142 561.457,238.953C562.679,239.765 563.291,240.974 563.291,242.579C563.291,243.419 563.097,244.163 562.71,244.813C562.323,245.463 561.717,245.953 560.893,246.284C561.943,246.51 562.719,246.978 563.224,247.689C563.729,248.399 563.981,249.217 563.981,250.147C563.981,251.865 563.404,253.164 562.25,254.044C561.095,254.924 559.441,255.364 557.287,255.364L550.567,255.364Z" style="fill:rgb(237,30,36);fill-rule:nonzero;"/>
            <path d="M571.801,248.79L575.155,248.79L573.507,243.318L573.435,243.318L571.801,248.79ZM576.098,251.937L570.856,251.937L569.839,255.364L565.53,255.364L571.281,237.737L573.471,237.737L573.471,237.749L573.483,237.737L575.675,237.737L581.437,255.364L577.128,255.364L576.098,251.937Z" style="fill:rgb(237,30,36);fill-rule:nonzero;"/>
            <path d="M498.516,285.834L374.827,285.834L374.827,310.044L411.605,310.044L411.605,355.455L461.737,355.455L461.737,310.044L498.516,310.044L498.516,285.834Z" style="fill-rule:nonzero;"/>
            <path d="M550.81,323.669L563.554,303.673L576.297,323.669L550.81,323.669ZM596.773,355.455L643.523,355.455L589.953,285.834L537.156,285.834L483.586,355.455L530.336,355.455L539.012,341.783L588.096,341.783L596.773,355.455Z" style="fill-rule:nonzero;"/>
            <path d="M309.11,313.671L359.242,356.385L359.242,285.834L309.11,285.834L309.11,313.671Z" style="fill-rule:nonzero;"/>
            <path d="M228.15,355.455L278.282,355.455L278.282,327.716L228.15,284.905L228.15,355.455Z" style="fill-rule:nonzero;"/>
            <path d="M228.15,285.834L359.242,399.133L359.242,355.455L228.15,242.157L228.15,285.834Z" style="fill:rgb(237,30,36);fill-rule:nonzero;"/>
        </g>
    </g>
</svg>
